<?xml version="1.0" encoding="UTF-8" standalone="no"?>
<!-- Created with Inkscape (http://www.inkscape.org/) -->
<svg
   xmlns:dc="http://purl.org/dc/elements/1.1/"
   xmlns:cc="http://creativecommons.org/ns#"
   xmlns:rdf="http://www.w3.org/1999/02/22-rdf-syntax-ns#"
   xmlns:svg="http://www.w3.org/2000/svg"
   xmlns="http://www.w3.org/2000/svg"
   xmlns:sodipodi="http://sodipodi.sourceforge.net/DTD/sodipodi-0.dtd"
   xmlns:inkscape="http://www.inkscape.org/namespaces/inkscape"
   width="744.09448819"
   height="1052.3622047"
   id="svg2"
   sodipodi:version="0.32"
   inkscape:version="0.46"
   sodipodi:docname="bottle.svg"
   inkscape:output_extension="org.inkscape.output.svg.inkscape"
   inkscape:export-filename="/home/mct/bottle.png"
   inkscape:export-xdpi="90"
   inkscape:export-ydpi="90">
  <defs
     id="defs4">
    <inkscape:perspective
       sodipodi:type="inkscape:persp3d"
       inkscape:vp_x="0 : 526.18109 : 1"
       inkscape:vp_y="0 : 1000 : 0"
       inkscape:vp_z="744.09448 : 526.18109 : 1"
       inkscape:persp3d-origin="372.04724 : 350.78739 : 1"
       id="perspective10" />
  </defs>
  <sodipodi:namedview
     id="base"
     pagecolor="#ffffff"
     bordercolor="#666666"
     borderopacity="1.0"
     gridtolerance="10000"
     guidetolerance="10"
     objecttolerance="10"
     inkscape:pageopacity="0.0"
     inkscape:pageshadow="2"
     inkscape:zoom="0.11313708"
     inkscape:cx="9236.3268"
     inkscape:cy="2346.1098"
     inkscape:document-units="px"
     inkscape:current-layer="layer1"
     showgrid="false"
     inkscape:snap-global="true"
     showguides="true"
     inkscape:window-width="1400"
     inkscape:window-height="975"
     inkscape:window-x="0"
     inkscape:window-y="25">
    <inkscape:grid
       type="xygrid"
       id="grid2407" />
  </sodipodi:namedview>
  <metadata
     id="metadata7">
    <rdf:RDF>
      <cc:Work
         rdf:about="">
        <dc:format>image/svg+xml</dc:format>
        <dc:type
           rdf:resource="http://purl.org/dc/dcmitype/StillImage" />
      </cc:Work>
    </rdf:RDF>
  </metadata>
  <g
     inkscape:label="Layer 1"
     inkscape:groupmode="layer"
     id="layer1">
    <path
       sodipodi:type="arc"
       style="fill:#000000"
       id="path2409"
       sodipodi:cx="300"
       sodipodi:cy="312.36218"
       sodipodi:rx="120"
       sodipodi:ry="20"
       d="M 420,312.36218 A 120,20 0 1 1 180,312.36218 A 120,20 0 1 1 420,312.36218 z"
       transform="matrix(1.0833333,0,0,2.5,8415.7143,288.59959)" />
    <rect
       style="fill:#000000"
       id="rect2411"
       width="260"
       height="380"
       x="8610.7139"
       y="689.50507" />
    <rect
       style="fill:#000000"
       id="rect2417"
       width="100"
       height="300"
       x="8690.7139"
       y="389.50504" />
    <path
       sodipodi:type="arc"
       style="fill:#000000"
       id="path2421"
       sodipodi:cx="190"
       sodipodi:cy="452.36218"
       sodipodi:rx="50"
       sodipodi:ry="40"
       d="M 240,452.36218 A 50,40 0 1 1 140,452.36218 A 50,40 0 1 1 240,452.36218 z"
       transform="matrix(2.2,0,0,3.2499998,8302.7143,-780.67195)" />
    <path
       sodipodi:type="arc"
       style="fill:#000000"
       id="path2425"
       sodipodi:cx="190"
       sodipodi:cy="452.36218"
       sodipodi:rx="50"
       sodipodi:ry="40"
       d="M 240,452.36218 A 50,40 0 1 1 140,452.36218 A 50,40 0 1 1 240,452.36218 z"
       transform="matrix(2.2,0,0,3.2499998,8342.7143,-780.67195)" />
    <rect
       style="fill:#000000"
       id="rect2427"
       width="115"
       height="50"
       x="8680.7139"
       y="339.50504" />
    <path
       sodipodi:type="arc"
       style="fill:#000000"
       id="path2471"
       sodipodi:cx="300"
       sodipodi:cy="167.36218"
       sodipodi:rx="5"
       sodipodi:ry="5"
       d="M 305,167.36218 A 5,5 0 1 1 295,167.36218 A 5,5 0 1 1 305,167.36218 z"
       transform="translate(8385.7143,172.14286)" />
    <path
       sodipodi:type="arc"
       style="fill:#000000"
       id="path2473"
       sodipodi:cx="300"
       sodipodi:cy="167.36218"
       sodipodi:rx="5"
       sodipodi:ry="5"
       d="M 305,167.36218 A 5,5 0 1 1 295,167.36218 A 5,5 0 1 1 305,167.36218 z"
       transform="translate(8385.7143,222.14286)" />
    <path
       sodipodi:type="arc"
       style="fill:#000000"
       id="path2475"
       sodipodi:cx="300"
       sodipodi:cy="167.36218"
       sodipodi:rx="5"
       sodipodi:ry="5"
       d="M 305,167.36218 A 5,5 0 1 1 295,167.36218 A 5,5 0 1 1 305,167.36218 z"
       transform="translate(8495.7143,172.14286)" />
    <path
       sodipodi:type="arc"
       style="fill:#000000"
       id="path2477"
       sodipodi:cx="300"
       sodipodi:cy="167.36218"
       sodipodi:rx="5"
       sodipodi:ry="5"
       d="M 305,167.36218 A 5,5 0 1 1 295,167.36218 A 5,5 0 1 1 305,167.36218 z"
       transform="translate(8495.7143,222.14286)" />
    <rect
       style="fill:#000000"
       id="rect2479"
       width="5"
       height="50"
       x="8680.7139"
       y="339.50504" />
    <rect
       style="fill:#000000"
       id="rect2481"
       width="5"
       height="50"
       x="8795.7139"
       y="339.50504" />
    <rect
       style="fill:#2b0000"
       id="rect2485"
       width="115"
       height="0"
       x="315"
       y="202.36218" />
    <rect
       style="fill:#000000"
       id="rect2487"
       width="110"
       height="5"
       x="8685.7139"
       y="334.50504" />
    <rect
       style="fill:#000000"
       id="rect2489"
       width="110"
       height="5"
       x="8685.7139"
       y="389.50504" />
    <path
       sodipodi:type="arc"
       style="fill:#000000"
       id="path2491"
       sodipodi:cx="820"
       sodipodi:cy="-327.63782"
       sodipodi:rx="500"
       sodipodi:ry="500"
       d="M 1320,-327.63782 A 500,500 0 1 1 320,-327.63782 A 500,500 0 1 1 1320,-327.63782 z"
       transform="matrix(2.72,0,0,2.72,6489.6,-1736.463)" />
    <path
       style="fill:none;fill-rule:evenodd;stroke:#000000;stroke-width:10;stroke-linecap:butt;stroke-linejoin:miter;stroke-miterlimit:4;stroke-dasharray:none;stroke-opacity:1"
       d="M 8700.0273,358.63955 C 7771.1924,-2102.7013 7543.7227,-2066.4161 7543.7227,-2066.4161"
       id="path3369" />
    <path
       style="fill:none;fill-rule:evenodd;stroke:#000000;stroke-width:10;stroke-linecap:butt;stroke-linejoin:miter;stroke-miterlimit:4;stroke-dasharray:none;stroke-opacity:1"
       d="M 8779.5849,349.46656 C 9708.4198,-2111.8743 9935.8895,-2075.5891 9935.8895,-2075.5891"
       id="path3371" />
    <path
       style="fill:none;fill-rule:evenodd;stroke:#000000;stroke-width:10;stroke-linecap:butt;stroke-linejoin:miter;stroke-opacity:1;stroke-miterlimit:4;stroke-dasharray:none"
       d="M 8720,332.36218 C 8400,-1507.6378 8160,-1587.6378 8160,-1587.6378"
       id="path3373" />
    <path
       style="fill:none;fill-rule:evenodd;stroke:#000000;stroke-width:10;stroke-linecap:butt;stroke-linejoin:miter;stroke-miterlimit:4;stroke-dasharray:none;stroke-opacity:1"
       d="M 8760,332.36216 C 9080,-1507.6378 9320,-1587.6378 9320,-1587.6378"
       id="path3375" />
  </g>
</svg>
